<svg width="159" height="34" viewBox="0 0 159 34" fill="none" xmlns="http://www.w3.org/2000/svg">
<path fill-rule="evenodd" clip-rule="evenodd" d="M71.817 34H153.183C156.382 34 159 32.5235 159 30.6779V3.28106C159 1.47648 156.382 0 153.183 0H71.817C68.6177 0 66 1.47648 66 3.28106V30.7189C66 32.5235 68.6177 34 71.817 34ZM122.799 21.0845V11.3535C122.799 10.3085 123.282 9.24366 124.249 8.15915C125.539 6.73944 127.172 6.01972 129.149 6V9.2831C128.031 9.30282 127.193 9.85493 126.634 10.9394C126.463 11.2944 126.377 11.5901 126.377 11.8268V21.0845C126.377 22.1493 126.978 22.938 128.182 23.4507C128.547 23.6085 128.858 23.6873 129.116 23.6873V27C127.892 27 126.667 26.5958 125.442 25.7873C123.701 24.6042 122.82 23.0366 122.799 21.0845ZM130.889 27V23.6873C131.448 23.6873 132.028 23.4507 132.63 22.9775C133.274 22.4451 133.607 21.8141 133.629 21.0845V11.8268C133.629 11.2352 133.35 10.6634 132.791 10.1113C132.254 9.57887 131.62 9.30282 130.889 9.2831V6C133.059 6 134.8 6.85775 136.111 8.57324C136.863 9.55915 137.239 10.4859 137.239 11.3535V21.0845C137.239 23.2732 136.175 24.9493 134.048 26.1127C132.931 26.7042 131.878 27 130.889 27ZM72 6.14789V26.8521H83.7327V23.569H75.6101V18.2155H80.7028V14.9028H75.6101V9.40141H83.7327V6.14789H72ZM86.3113 6.14789V26.8521H89.9214V6.14789H86.3113ZM91.5975 23.569V26.8521C92.7149 26.8521 93.7571 26.7042 94.7241 26.4085C97.539 25.5606 98.9465 23.7662 98.9465 21.0254V11.9746C98.9465 10.7324 98.549 9.61831 97.7539 8.63239C96.4002 6.97606 94.348 6.14789 91.5975 6.14789V9.43099C92.1777 9.43099 92.7149 9.5 93.2091 9.63803C94.6488 10.0127 95.3687 10.7915 95.3687 11.9746V21.0254V21.0845C95.3257 22.7408 94.0687 23.569 91.5975 23.569ZM101.557 26.8521V6.14789H105.167V26.8521H101.557ZM107.037 6.14789V9.37183H112.226V26.8521H115.836V9.37183H120.994V6.14789H107.037ZM139.818 6.14789V26.8521H143.428V6.14789H139.818ZM145.072 15.169V18.1268H146.941C147.65 18.1268 148.241 18.2352 148.714 18.4521C149.509 18.8859 149.992 19.931 150.164 21.5873L150.648 26.8521H154L153.452 20.4338C153.431 20.2169 153.398 19.9803 153.355 19.7239C153.055 18.2056 152.345 17.1507 151.228 16.5592C152.668 15.5732 153.398 13.9859 153.42 11.7972C153.42 10.7718 153.216 9.86479 152.807 9.07606C151.819 7.1831 149.896 6.20704 147.038 6.14789H145.072V9.22394H146.619C146.941 9.22394 147.253 9.24366 147.553 9.2831C149.187 9.57887 150.003 10.5549 150.003 12.2113C150.003 12.369 149.992 12.5366 149.971 12.7141C149.778 14.3507 148.746 15.169 146.877 15.169H145.072Z" fill="white"/>
<path d="M13.3368 26.4167C9.7962 26.8056 6.85892 27 4.52499 27C2.96903 27 1.82587 26.5528 1.09552 25.6583C0.365174 24.7639 0 23.3639 0 21.4583V12.125C0 10.0833 0.373113 8.60556 1.11934 7.69167C1.88144 6.75833 3.09604 6.29167 4.76314 6.29167H13.3368V10.375H5.71577C4.76314 10.375 4.28683 10.9583 4.28683 12.125V21.4583C4.28683 21.9056 4.39003 22.2653 4.59643 22.5375C4.81871 22.7903 5.09656 22.9167 5.42998 22.9167C5.7634 22.9167 6.12858 22.9167 6.52551 22.9167C6.92243 22.8972 7.33524 22.8778 7.76392 22.8583C8.19261 22.8389 8.62129 22.8194 9.04997 22.8C9.49453 22.7806 10.0582 22.7417 10.7409 22.6833C11.4395 22.625 12.3048 22.5569 13.3368 22.4792V26.4167Z" fill="white"/>
<path d="M25.9619 11.8333C25.9619 10.6667 25.4856 10.0833 24.533 10.0833H20.4843C19.5317 10.0833 19.0554 10.6667 19.0554 11.8333V21.1667C19.0554 22.3333 19.5317 22.9167 20.4843 22.9167H24.533C25.4856 22.9167 25.9619 22.3333 25.9619 21.1667V11.8333ZM30.2487 21.1667C30.2487 23.2083 29.8677 24.6958 29.1056 25.6292C28.3594 26.5431 27.1527 27 25.4856 27H19.5317C17.8646 27 16.65 26.5431 15.8879 25.6292C15.1416 24.6958 14.7685 23.2083 14.7685 21.1667V11.8333C14.7685 9.79167 15.1416 8.31389 15.8879 7.4C16.65 6.46667 17.8646 6 19.5317 6H25.4856C27.1527 6 28.3594 6.46667 29.1056 7.4C29.8677 8.31389 30.2487 9.79167 30.2487 11.8333V21.1667Z" fill="white"/>
<path d="M41.9296 6.29167C43.7237 6.29167 45.0812 6.86528 46.0021 8.0125C46.9388 9.14028 47.4072 10.8028 47.4072 13V20C47.4072 22.1972 46.9388 23.8694 46.0021 25.0167C45.0812 26.1444 43.7237 26.7083 41.9296 26.7083H32.6415V6.29167H41.9296ZM43.1204 13C43.1204 11.25 42.4059 10.375 40.977 10.375H36.9283V22.625H40.977C42.4059 22.625 43.1204 21.75 43.1204 20V13Z" fill="white"/>
<path d="M63 26.7083H49.7823V6.29167H63V10.375H54.0691V14.3125H61.0947V18.3958H54.0691V22.625H63V26.7083Z" fill="white"/>
</svg>
